<svg width="71" height="60" viewBox="0 0 71 60" fill="none" xmlns="http://www.w3.org/2000/svg">
<path opacity="0.8" d="M4.4031 60L1.4677 58.3333L0 56.6667V53.3333V45V36.6667V28.3333V20V13.3333V5V3.33333L1.4677 1.04167L4.4031 0H11.7416H19.0801H36.6925H41.0956H44.031L48.4341 1.04167L54.3049 2.29167L58.708 5L60.1757 6.66667L63.1111 8.33333L64.5788 10L66.0465 11.6667L67.5142 15L70.4496 20L71 25V30L68.9819 41.6667L63.1111 48.3333L57.2403 53.3333L51.3695 56.6667L48.4341 58.3333L39.6279 60H30.8217L26.4186 56.6667V45L39.6279 38.3333V51.6667H42.5633H45.4987L48.4341 48.3333L51.3695 45L52.8372 43.3333L54.3049 40L55.7726 36.6667V31.6667V28.3333V25L54.3049 21.6667L52.8372 18.3333L51.3695 16.6667L49.9018 15L48.4341 13.3333L45.4987 11.6667H42.5633H14.677V36.6667C18.5909 33.8889 27.2878 27.9525 29.354 25C31.05 22.5765 29.9806 19.6846 29.6475 18.3333C29.0743 16.947 28.5988 16.2868 27.8863 15H30.8217H36.6925H41.0956C42.0829 14.9919 43.0507 15.0908 44.031 16.6667C45.0113 18.2425 44.031 25 44.031 25L41.0956 30C38.0472 33.4253 36.4945 34.6403 33.7571 36.6667L22.0155 41.6667L14.677 45V56.6667L14.6187 56.7982C14.1611 57.8309 14.1139 57.9374 13.2093 60H10.2739H7.3385H4.4031Z" fill="#5C6FB8"/>
</svg>
